<svg width="30" height="22" viewBox="0 0 30 22" fill="none" xmlns="http://www.w3.org/2000/svg">
<path d="M29.2351 18.8045V3.50454C29.2351 2.09354 28.0961 0.954544 26.6851 0.954544H2.86812C1.45712 0.954544 0.318115 2.09354 0.318115 3.50454V18.8045C0.318115 20.2155 1.45712 21.3545 2.86812 21.3545H26.6851C28.0961 21.3545 29.2351 20.2155 29.2351 18.8045ZM27.0081 3.31754C27.5691 3.87854 27.2631 4.45654 26.9571 4.74554L20.0551 11.0695L26.6851 17.9715C26.8891 18.2095 27.0251 18.5835 26.7871 18.8385C26.5661 19.1105 26.0561 19.0935 25.8351 18.9235L18.4061 12.5825L14.7681 15.8975L11.1471 12.5825L3.71812 18.9235C3.49712 19.0935 2.98712 19.1105 2.76612 18.8385C2.52812 18.5835 2.66412 18.2095 2.86812 17.9715L9.49812 11.0695L2.59612 4.74554C2.29012 4.45654 1.98412 3.87854 2.54512 3.31754C3.10612 2.75654 3.68412 3.02854 4.16012 3.43654L14.7681 12.0045L25.3931 3.43654C25.8691 3.02854 26.4471 2.75654 27.0081 3.31754Z" fill="#0071BC"/>
</svg>
