<svg width="18" height="20" viewBox="0 0 18 20" fill="none" xmlns="http://www.w3.org/2000/svg">
<path d="M9.09194 7.09883C7.45668 7.09883 6.12218 8.51676 6.12218 10.2543C6.12218 11.9918 7.45668 13.4097 9.09194 13.4097C10.7272 13.4097 12.0617 11.9918 12.0617 10.2543C12.0617 8.51676 10.7272 7.09883 9.09194 7.09883ZM17.999 10.2543C17.999 8.94758 18.0101 7.65274 17.9411 6.34843C17.872 4.83345 17.5467 3.4889 16.5041 2.38106C15.4592 1.27086 14.196 0.927625 12.7702 0.854243C11.5404 0.78086 10.3217 0.792696 9.09417 0.792696C7.86438 0.792696 6.64573 0.78086 5.41817 0.854243C3.99233 0.927625 2.72689 1.27323 1.68424 2.38106C0.639369 3.49126 0.316327 4.83345 0.247262 6.34843C0.178198 7.65511 0.189338 8.94995 0.189338 10.2543C0.189338 11.5586 0.178198 12.8558 0.247262 14.1601C0.316327 15.6751 0.641597 17.0196 1.68424 18.1274C2.72912 19.2376 3.99233 19.5809 5.41817 19.6543C6.64796 19.7277 7.86661 19.7158 9.09417 19.7158C10.324 19.7158 11.5426 19.7277 12.7702 19.6543C14.196 19.5809 15.4614 19.2353 16.5041 18.1274C17.549 17.0172 17.872 15.6751 17.9411 14.1601C18.0124 12.8558 17.999 11.5609 17.999 10.2543ZM9.09194 15.1093C6.5633 15.1093 4.52256 12.941 4.52256 10.2543C4.52256 7.56752 6.5633 5.3992 9.09194 5.3992C11.6206 5.3992 13.6613 7.56752 13.6613 10.2543C13.6613 12.941 11.6206 15.1093 9.09194 15.1093ZM13.8485 6.33423C13.2581 6.33423 12.7813 5.82766 12.7813 5.20036C12.7813 4.57306 13.2581 4.06649 13.8485 4.06649C14.4389 4.06649 14.9156 4.57306 14.9156 5.20036C14.9158 5.34931 14.8883 5.49684 14.8347 5.63449C14.7812 5.77215 14.7026 5.89722 14.6034 6.00254C14.5043 6.10787 14.3866 6.19138 14.2571 6.2483C14.1275 6.30522 13.9887 6.33442 13.8485 6.33423Z" fill="white"/>
</svg>
