<svg width="18" height="20" viewBox="0 0 18 20" fill="none" xmlns="http://www.w3.org/2000/svg">
<path d="M9.09199 7.09931C7.45672 7.09931 6.12222 8.51725 6.12222 10.2547C6.12222 11.9922 7.45672 13.4102 9.09199 13.4102C10.7272 13.4102 12.0617 11.9922 12.0617 10.2547C12.0617 8.51725 10.7272 7.09931 9.09199 7.09931ZM17.999 10.2547C17.999 8.94807 18.0102 7.65323 17.9411 6.34892C17.8721 4.83394 17.5468 3.48939 16.5041 2.38155C15.4593 1.27135 14.1961 0.928113 12.7702 0.854731C11.5404 0.781349 10.3218 0.793185 9.09421 0.793185C7.86442 0.793185 6.64578 0.781349 5.41821 0.854731C3.99237 0.928113 2.72694 1.27372 1.68429 2.38155C0.639415 3.49175 0.316372 4.83394 0.247308 6.34892C0.178244 7.6556 0.189383 8.95044 0.189383 10.2547C0.189383 11.5591 0.178244 12.8563 0.247308 14.1606C0.316372 15.6756 0.641643 17.0201 1.68429 18.1279C2.72917 19.2381 3.99237 19.5814 5.41821 19.6548C6.648 19.7281 7.86665 19.7163 9.09421 19.7163C10.324 19.7163 11.5427 19.7281 12.7702 19.6548C14.1961 19.5814 15.4615 19.2358 16.5041 18.1279C17.549 17.0177 17.8721 15.6756 17.9411 14.1606C18.0124 12.8563 17.999 11.5614 17.999 10.2547ZM9.09199 15.1098C6.56334 15.1098 4.52261 12.9415 4.52261 10.2547C4.52261 7.56801 6.56334 5.39969 9.09199 5.39969C11.6206 5.39969 13.6614 7.56801 13.6614 10.2547C13.6614 12.9415 11.6206 15.1098 9.09199 15.1098ZM13.8485 6.33472C13.2581 6.33472 12.7814 5.82815 12.7814 5.20085C12.7814 4.57355 13.2581 4.06697 13.8485 4.06697C14.4389 4.06697 14.9157 4.57355 14.9157 5.20085C14.9158 5.3498 14.8884 5.49733 14.8348 5.63498C14.7812 5.77263 14.7026 5.89771 14.6035 6.00303C14.5044 6.10836 14.3867 6.19187 14.2571 6.24879C14.1275 6.30571 13.9887 6.33491 13.8485 6.33472Z" fill="#2D2D2D"/>
</svg>
