<svg width="11" height="8" viewBox="0 0 11 8" fill="none" xmlns="http://www.w3.org/2000/svg">
<path d="M10.6062 7.71412C10.6511 7.62785 10.6717 7.53098 10.6656 7.43391C10.6596 7.33685 10.6273 7.24325 10.5721 7.16317L5.77186 0.229613C5.72277 0.158764 5.65725 0.100866 5.58089 0.0608774C5.50454 0.0208884 5.41963 6.46284e-08 5.33343 6.36006e-08C5.24724 6.25727e-08 5.16233 0.0208884 5.08598 0.0608774C5.00962 0.100866 4.9441 0.158764 4.89501 0.229613L0.0947585 7.16317C0.0393916 7.24319 0.00696984 7.33683 0.00100367 7.43395C-0.00496251 7.53107 0.0157543 7.62797 0.0609109 7.71416C0.106068 7.80035 0.173943 7.87255 0.257188 7.92293C0.340433 7.97332 0.435876 7.99997 0.533182 8L10.1337 8C10.231 8.00002 10.3266 7.97338 10.4099 7.92299C10.4932 7.8726 10.5611 7.80037 10.6062 7.71412Z" fill="#2D2D2D"/>
</svg>
