<svg width="60" height="60" viewBox="0 0 60 60" fill="none" xmlns="http://www.w3.org/2000/svg">
<g clip-path="url(#clip0)">
<path d="M48.6924 52.2579L46.4521 45.536C45.6692 43.1892 43.6718 41.4569 41.2369 41.0137L34.7695 39.8369V39.3356C35.895 38.6824 36.8744 37.8085 37.6544 36.774H39.6082C41.2089 36.774 42.5114 35.4714 42.5114 33.8708V22.2579C42.5114 15.3211 36.8676 9.67725 29.9308 9.67725C22.994 9.67725 17.3502 15.3211 17.3502 22.2579V29.0321C17.3502 30.8979 18.6769 32.4589 20.4363 32.8227C20.9792 35.604 22.7173 37.9576 25.0921 39.3356V39.8369L18.6237 41.0137C16.1898 41.4569 14.1914 43.1892 13.4095 45.536L13.0224 46.6982L9.72629 43.4021C9.34887 43.0247 9.34887 42.4102 9.72629 42.0327L13.5489 38.2111L6.37403 31.0363L2.05403 35.3563C0.774676 36.6356 0.0701599 38.3369 0.0701599 40.1466C0.0701599 41.9563 0.774676 43.6566 2.05403 44.936L15.1331 58.015C16.4124 59.2943 18.1137 59.9998 19.9234 59.9998C21.7331 59.9998 23.4334 59.2943 24.6827 58.044L29.3966 53.725L27.9266 52.2579H48.6924ZM40.576 33.8708C40.576 34.405 40.1414 34.8385 39.6082 34.8385H38.7944C39.075 34.1989 39.2879 33.5243 39.4253 32.8227C39.8395 32.7366 40.2208 32.5721 40.576 32.365V33.8708ZM39.6082 30.6985V27.3656C40.184 27.7014 40.576 28.3189 40.576 29.0321C40.576 29.7453 40.184 30.3627 39.6082 30.6985ZM20.2534 30.6985C19.6776 30.3627 19.2856 29.7453 19.2856 29.0321C19.2856 28.3189 19.6776 27.7014 20.2534 27.3656V30.6985ZM20.2534 24.1934V25.2985C19.9089 25.3885 19.5856 25.524 19.2856 25.6992V22.2579C19.2856 16.3885 24.0614 11.6127 29.9308 11.6127C35.8002 11.6127 40.576 16.3885 40.576 22.2579V25.6992C40.276 25.524 39.9527 25.3876 39.6082 25.2985V24.1934H38.6405C35.7789 24.1934 33.0885 23.0785 31.064 21.055L29.9308 19.9218L28.7976 21.055C26.7731 23.0785 24.0827 24.1934 21.2211 24.1934H20.2534ZM22.1889 30.9676V26.0921C25.095 25.8734 27.8047 24.6743 29.9308 22.6527C32.0569 24.6743 34.7666 25.8743 37.6727 26.0921V30.9676C37.6727 32.3785 37.2876 33.6985 36.6256 34.8385H29.9308V36.774H35.0347C33.6702 37.975 31.8866 38.7095 29.9308 38.7095C25.6621 38.7095 22.1889 35.2363 22.1889 30.9676ZM32.834 40.1989V40.2443L29.9308 43.1476L27.0276 40.2443V40.1989C27.945 40.4873 28.9195 40.645 29.9308 40.645C30.9421 40.645 31.9166 40.4873 32.834 40.1989ZM15.2444 46.1476C15.8027 44.4714 17.2302 43.2337 18.9692 42.9163L25.7337 41.6872L29.9308 45.8843L34.1269 41.6882L40.8905 42.9172C42.6295 43.2347 44.0569 44.4714 44.6153 46.1485L46.0079 50.3224H25.9911L22.2218 46.5531L18.0334 50.3418C17.6685 50.7085 17.0308 50.7085 16.665 50.3418L14.5514 48.2282L15.2444 46.1476ZM6.37306 33.7731L10.8111 38.2111L9.76016 39.2621L5.32209 34.824L6.37306 33.7731ZM23.3424 56.6485C22.4289 57.5602 21.2134 58.0643 19.9214 58.0643C18.6295 58.0643 17.414 57.5602 16.4995 56.6466L3.42048 43.5685C2.50693 42.655 2.00371 41.4395 2.00371 40.1476C2.00371 38.8547 2.50693 37.6392 3.42048 36.7256L3.95274 36.1934L8.3908 40.6314L8.35596 40.6663C7.22467 41.7985 7.22467 43.6402 8.35596 44.7724L15.2956 51.7121C15.8444 52.2598 16.5731 52.5627 17.3492 52.5627C18.1253 52.5627 18.854 52.2608 19.3669 51.746L19.4395 51.6811L23.8979 56.1395L23.3424 56.6485ZM25.3263 54.8292L20.8776 50.3805L22.156 49.225L26.5969 53.666L25.3263 54.8292Z" fill="#2D2D2D"/>
<path d="M57.0276 0H43.4792C41.8786 0 40.576 1.30258 40.576 2.90323V10.6452C40.576 12.2458 41.8786 13.5484 43.4792 13.5484H46.0641L45.0634 19.3848L54.4021 13.5484H57.0276C58.6282 13.5484 59.9308 12.2458 59.9308 10.6452V2.90323C59.9308 1.30258 58.6282 0 57.0276 0ZM57.9953 10.6452C57.9953 11.1784 57.5608 11.6129 57.0276 11.6129H53.8466L47.7005 15.4539L48.3595 11.6129H43.4792C42.946 11.6129 42.5115 11.1784 42.5115 10.6452V2.90323C42.5115 2.37 42.946 1.93548 43.4792 1.93548H57.0276C57.5608 1.93548 57.9953 2.37 57.9953 2.90323V10.6452Z" fill="#2D2D2D"/>
<path d="M56.0599 3.87109H44.447V5.80658H56.0599V3.87109Z" fill="#2D2D2D"/>
<path d="M52.1889 7.7417H44.447V9.67718H52.1889V7.7417Z" fill="#2D2D2D"/>
<path d="M56.0598 7.7417H54.1244V9.67718H56.0598V7.7417Z" fill="#2D2D2D"/>
<path d="M29.9308 2.90332C17.2863 2.90332 6.39434 11.6498 3.56273 23.8501L1.72886 20.793L0.0691833 21.7888L3.4708 27.4569L9.13886 24.0553L8.14305 22.3956L5.52047 23.9691C8.26305 12.8082 18.2995 4.8388 29.9308 4.8388C32.473 4.8388 34.9814 5.21622 37.3863 5.96138L37.9592 4.113C35.3685 3.30977 32.6676 2.90332 29.9308 2.90332Z" fill="#2D2D2D"/>
<path d="M59.4605 21.428L53.7924 18.0264L50.3918 23.6954L52.0515 24.6912L53.745 21.8683C54.6363 24.4764 55.0921 27.2044 55.0921 30.0002C55.0921 35.7554 53.0986 41.3818 49.4802 45.8422L50.9831 47.0615C54.8811 42.2577 57.0276 36.1977 57.0276 30.0002C57.0276 27.0399 56.5505 24.1493 55.6205 21.3815L58.4647 23.0877L59.4605 21.428Z" fill="#2D2D2D"/>
</g>
<defs>
<clipPath id="clip0">
<rect width="60" height="60" fill="white"/>
</clipPath>
</defs>
</svg>
