<svg width="20" height="19" viewBox="0 0 20 19" fill="none" xmlns="http://www.w3.org/2000/svg">
<path d="M19.0539 17.3087C19.3321 17.5869 19.3321 18.0381 19.0539 18.3163C18.7756 18.5946 18.3245 18.5946 18.0462 18.3163L14.6262 14.8963C14.348 14.6181 14.348 14.1669 14.6262 13.8887C14.9045 13.6104 15.3556 13.6104 15.6339 13.8887L19.0539 17.3087ZM8.29005 15.105C4.11892 15.105 0.737549 11.7236 0.737549 7.5525C0.737549 3.38137 4.11892 0 8.29005 0C12.4612 0 15.8425 3.38137 15.8425 7.5525C15.8425 11.7236 12.4612 15.105 8.29005 15.105ZM8.29005 13.68C11.6742 13.68 14.4175 10.9366 14.4175 7.5525C14.4175 4.16838 11.6742 1.425 8.29005 1.425C4.90592 1.425 2.16255 4.16838 2.16255 7.5525C2.16255 10.9366 4.90592 13.68 8.29005 13.68ZM4.77505 6.9825C4.77505 7.24483 4.56238 7.4575 4.30005 7.4575C4.03771 7.4575 3.82505 7.24483 3.82505 6.9825C3.82505 4.83135 5.5689 3.0875 7.72005 3.0875C7.98238 3.0875 8.19505 3.30016 8.19505 3.5625C8.19505 3.82484 7.98238 4.0375 7.72005 4.0375C6.09357 4.0375 4.77505 5.35602 4.77505 6.9825Z" fill="#D0C9D6"/>
</svg>
