<svg width="7" height="11" viewBox="0 0 7 11" fill="none" xmlns="http://www.w3.org/2000/svg">
<path d="M0.250141 10.4405C0.325634 10.4847 0.410396 10.5049 0.495328 10.499C0.58026 10.4931 0.662155 10.4612 0.732224 10.4069L6.79909 5.68167C6.86108 5.63335 6.91174 5.56885 6.94673 5.49369C6.98172 5.41853 7 5.33494 7 5.2501C7 5.16525 6.98172 5.08167 6.94673 5.00651C6.91174 4.93135 6.86108 4.86685 6.79909 4.81853L0.732224 0.0932779C0.662209 0.0387761 0.580276 0.00686093 0.495296 0.000987978C0.410315 -0.00488498 0.325526 0.0155081 0.250109 0.0599592C0.174691 0.10441 0.11152 0.171225 0.0674341 0.25317C0.0233485 0.335114 2.87398e-05 0.429065 6.33899e-09 0.524851V9.97535C-1.40319e-05 10.0712 0.0232888 10.1652 0.0673829 10.2472C0.111477 10.3292 0.17468 10.3961 0.250141 10.4405Z" fill="#0071BC"/>
</svg>
