<svg width="27" height="20" viewBox="0 0 27 20" fill="none" xmlns="http://www.w3.org/2000/svg">
<path d="M25.7864 3.7482C25.6406 3.17575 25.3549 2.65372 24.9577 2.23434C24.5605 1.81496 24.0658 1.51295 23.5232 1.35852C21.5258 0.791992 13.5189 0.791992 13.5189 0.791992C13.5189 0.791992 5.51197 0.791992 3.51453 1.35551C2.97166 1.50943 2.47674 1.81128 2.07948 2.23074C1.68223 2.65019 1.39662 3.17249 1.25134 3.74518C0.71698 5.8546 0.71698 10.2543 0.71698 10.2543C0.71698 10.2543 0.71698 14.6539 1.25134 16.7603C1.54567 17.9235 2.41437 18.8396 3.51453 19.15C5.51197 19.7165 13.5189 19.7165 13.5189 19.7165C13.5189 19.7165 21.5258 19.7165 23.5232 19.15C24.6262 18.8396 25.4921 17.9235 25.7864 16.7603C26.3208 14.6539 26.3208 10.2543 26.3208 10.2543C26.3208 10.2543 26.3208 5.85461 25.7864 3.7482ZM10.9756 14.2923V6.21622L17.6052 10.2241L10.9756 14.2923Z" fill="white"/>
</svg>
