<svg width="27" height="20" viewBox="0 0 27 20" fill="none" xmlns="http://www.w3.org/2000/svg">
<path d="M25.7864 3.74868C25.6407 3.17624 25.3549 2.65421 24.9578 2.23483C24.5606 1.81545 24.0659 1.51344 23.5233 1.35901C21.5258 0.792481 13.5189 0.79248 13.5189 0.79248C13.5189 0.79248 5.51203 0.79248 3.5146 1.356C2.97172 1.50992 2.4768 1.81177 2.07954 2.23123C1.68229 2.65068 1.39668 3.17298 1.25141 3.74567C0.717041 5.85509 0.717041 10.2547 0.717041 10.2547C0.717041 10.2547 0.717041 14.6544 1.25141 16.7608C1.54573 17.924 2.41443 18.8401 3.5146 19.1505C5.51203 19.717 13.5189 19.717 13.5189 19.717C13.5189 19.717 21.5258 19.717 23.5233 19.1505C24.6263 18.8401 25.4921 17.924 25.7864 16.7608C26.3208 14.6544 26.3208 10.2547 26.3208 10.2547C26.3208 10.2547 26.3208 5.85509 25.7864 3.74868ZM10.9757 14.2928V6.21671L17.6052 10.2246L10.9757 14.2928Z" fill="#2D2D2D"/>
</svg>
