<svg width="202" height="452" viewBox="0 0 202 452" fill="none" xmlns="http://www.w3.org/2000/svg">
<path d="M189.694 2.46649C188.847 0.426147 186.507 -0.541301 184.466 0.305633C182.426 1.15257 181.458 3.49317 182.305 5.53351L189.694 2.46649ZM147 161L144.906 157.592L147 161ZM13.8781 436.469C11.9277 435.431 9.50561 436.171 8.46817 438.122C7.43073 440.072 8.17082 442.494 10.1212 443.531L13.8781 436.469ZM20.5187 447.81C22.6296 448.461 24.869 447.278 25.5206 445.167C26.1721 443.057 24.9891 440.817 22.8783 440.166L20.5187 447.81ZM42.4826 443.209C40.2743 443.149 38.4356 444.891 38.3756 447.099C38.3157 449.307 40.0574 451.146 42.2657 451.206L42.4826 443.209ZM63.9953 449.523C66.1707 449.138 67.6229 447.063 67.2387 444.888C66.8546 442.712 64.7796 441.26 62.6041 441.644L63.9953 449.523ZM82.1986 436.375C80.1216 437.128 79.0482 439.421 79.8011 441.498C80.5539 443.575 82.8478 444.649 84.9247 443.896L82.1986 436.375ZM104.585 434.894C106.513 433.815 107.201 431.378 106.123 429.45C105.044 427.522 102.606 426.834 100.679 427.913L104.585 434.894ZM117.573 416.594C115.842 417.967 115.551 420.483 116.923 422.214C118.295 423.945 120.811 424.236 122.542 422.863L117.573 416.594ZM138.362 408.116C139.853 406.485 139.739 403.955 138.108 402.465C136.478 400.974 133.948 401.088 132.457 402.719L138.362 408.116ZM144.949 386.664C143.733 388.509 144.243 390.99 146.088 392.205C147.933 393.421 150.413 392.911 151.629 391.066L144.949 386.664ZM162.105 372.161C163.028 370.153 162.148 367.778 160.141 366.856C158.133 365.933 155.758 366.813 154.836 368.82L162.105 372.161ZM162.009 349.72C161.378 351.837 162.582 354.065 164.699 354.696C166.816 355.328 169.044 354.124 169.675 352.007L162.009 349.72ZM174.473 331.06C174.831 328.88 173.354 326.822 171.174 326.464C168.994 326.106 166.936 327.583 166.578 329.763L174.473 331.06ZM168.742 309.319C168.63 311.526 170.328 313.405 172.534 313.517C174.74 313.629 176.62 311.931 176.731 309.724L168.742 309.319ZM176.681 287.906C176.553 285.701 174.661 284.016 172.456 284.144C170.251 284.272 168.566 286.164 168.694 288.369L176.681 287.906ZM166.186 267.308C166.583 269.481 168.666 270.921 170.84 270.525C173.013 270.128 174.453 268.045 174.056 265.871L166.186 267.308ZM168.68 244.332C168.007 242.227 165.756 241.067 163.652 241.74C161.548 242.412 160.387 244.663 161.06 246.768L168.68 244.332ZM153.312 227.082C154.254 229.08 156.638 229.937 158.636 228.995C160.634 228.052 161.49 225.669 160.548 223.671L153.312 227.082ZM149.786 204.228C148.594 202.368 146.12 201.827 144.26 203.019C142.4 204.212 141.859 206.686 143.051 208.546L149.786 204.228ZM130.512 191.453C131.927 193.15 134.449 193.379 136.146 191.965C137.843 190.55 138.072 188.028 136.657 186.331L130.512 191.453ZM121.472 170.193C119.865 168.677 117.334 168.75 115.817 170.357C114.301 171.963 114.374 174.495 115.981 176.011L121.472 170.193ZM99.7087 162.346C101.479 163.667 103.986 163.303 105.307 161.532C106.628 159.762 106.263 157.255 104.492 155.934L99.7087 162.346ZM86.0163 143.738C84.1051 142.63 81.6576 143.281 80.5497 145.193C79.4417 147.104 80.0929 149.551 82.0041 150.659L86.0163 143.738ZM63.0483 141.166C65.0828 142.027 67.43 141.076 68.291 139.042C69.152 137.007 68.2008 134.66 66.1663 133.799L63.0483 141.166ZM45.0173 126.649C42.8729 126.118 40.704 127.426 40.1728 129.57C39.6416 131.714 40.9493 133.883 43.0936 134.414L45.0173 126.649ZM22.7312 131.914C24.9383 131.821 26.6518 129.956 26.5584 127.749C26.465 125.542 24.6 123.828 22.3928 123.922L22.7312 131.914ZM0.953034 136.885C0.534105 139.054 1.95286 141.152 4.12191 141.571C6.29097 141.99 8.38894 140.571 8.80787 138.402L0.953034 136.885ZM17.257 153.267C15.6317 151.771 13.1012 151.875 11.605 153.501C10.1088 155.126 10.2134 157.656 11.8387 159.153L17.257 153.267ZM30.7932 171.837C32.7719 172.819 35.1723 172.012 36.1546 170.033C37.137 168.054 36.3292 165.654 34.3505 164.671L30.7932 171.837ZM53.9685 171.982C51.8324 171.418 49.6439 172.693 49.0802 174.829C48.5166 176.965 49.7912 179.153 51.9273 179.717L53.9685 171.982ZM74.0797 183.387C76.2833 183.544 78.1969 181.885 78.3539 179.682C78.511 177.478 76.8519 175.565 74.6484 175.408L74.0797 183.387ZM95.6267 174.955C93.432 175.207 91.8568 177.19 92.1085 179.385C92.3601 181.58 94.3434 183.155 96.5381 182.903L95.6267 174.955ZM118.525 178.308C120.638 177.662 121.826 175.425 121.18 173.313C120.533 171.2 118.297 170.012 116.184 170.658L118.525 178.308ZM135.677 162.765C133.708 163.766 132.923 166.174 133.923 168.143C134.924 170.113 137.332 170.898 139.302 169.897L135.677 162.765ZM158.537 157.971C160.299 156.64 160.649 154.131 159.317 152.369C157.986 150.606 155.477 150.257 153.714 151.588L158.537 157.971ZM169.157 137.166C167.714 138.839 167.902 141.365 169.575 142.807C171.249 144.249 173.774 144.062 175.216 142.389L169.157 137.166ZM188.135 123.498C189.173 121.548 188.433 119.126 186.483 118.088C184.532 117.051 182.11 117.791 181.073 119.741L188.135 123.498ZM188.987 100.108C188.373 102.23 189.595 104.448 191.717 105.062C193.839 105.677 196.057 104.455 196.671 102.333L188.987 100.108ZM200.968 80.0222C201.197 77.8249 199.601 75.8583 197.404 75.6296C195.207 75.401 193.24 76.9968 193.011 79.1941L200.968 80.0222ZM193.58 57.7816C193.683 59.9884 195.555 61.6942 197.761 61.5916C199.968 61.4891 201.674 59.617 201.571 57.4103L193.58 57.7816ZM199.02 34.9952C198.628 32.8211 196.547 31.3766 194.373 31.7687C192.199 32.1608 190.755 34.2411 191.147 36.4151L199.02 34.9952ZM185.968 15.5572C186.644 17.6603 188.897 18.8169 191 18.1405C193.103 17.4642 194.26 15.2111 193.584 13.108L185.968 15.5572ZM10.1212 443.531C13.3434 445.245 16.8283 446.671 20.5187 447.81L22.8783 440.166C19.6259 439.162 16.6141 437.924 13.8781 436.469L10.1212 443.531ZM42.2657 451.206C49.2252 451.395 56.5351 450.84 63.9953 449.523L62.6041 441.644C55.6414 442.874 48.8708 443.382 42.4826 443.209L42.2657 451.206ZM84.9247 443.896C91.5327 441.501 98.1299 438.506 104.585 434.894L100.679 427.913C94.6053 431.311 88.4033 434.126 82.1986 436.375L84.9247 443.896ZM122.542 422.863C128.07 418.482 133.376 413.571 138.362 408.116L132.457 402.719C127.765 407.852 122.773 412.472 117.573 416.594L122.542 422.863ZM151.629 391.066C155.485 385.215 159.001 378.916 162.105 372.161L154.836 368.82C151.901 375.207 148.582 381.151 144.949 386.664L151.629 391.066ZM169.675 352.007C171.654 345.375 173.268 338.394 174.473 331.06L166.578 329.763C165.428 336.77 163.888 343.42 162.009 349.72L169.675 352.007ZM176.731 309.724C176.909 306.218 177 302.644 177 299H169C169 302.511 168.912 305.951 168.742 309.319L176.731 309.724ZM177 299C177 295.242 176.892 291.544 176.681 287.906L168.694 288.369C168.896 291.852 169 295.396 169 299H177ZM174.056 265.871C172.692 258.395 170.881 251.215 168.68 244.332L161.06 246.768C163.157 253.326 164.884 260.172 166.186 267.308L174.056 265.871ZM160.548 223.671C157.325 216.833 153.712 210.352 149.786 204.228L143.051 208.546C146.796 214.388 150.241 220.567 153.312 227.082L160.548 223.671ZM136.657 186.331C131.832 180.543 126.739 175.165 121.472 170.193L115.981 176.011C121.026 180.773 125.9 185.92 130.512 191.453L136.657 186.331ZM104.492 155.934C98.3875 151.38 92.187 147.315 86.0163 143.738L82.0041 150.659C87.9128 154.085 93.8554 157.98 99.7087 162.346L104.492 155.934ZM66.1663 133.799C58.8088 130.685 51.6809 128.3 45.0173 126.649L43.0936 134.414C49.3124 135.955 56.0413 138.201 63.0483 141.166L66.1663 133.799ZM22.3928 123.922C17.9387 124.11 13.864 124.864 10.4375 126.318L13.5619 133.682C15.8493 132.712 18.9126 132.076 22.7312 131.914L22.3928 123.922ZM10.4375 126.318C5.34695 128.477 1.88565 132.057 0.953034 136.885L8.80787 138.402C9.10681 136.855 10.2251 135.098 13.5619 133.682L10.4375 126.318ZM11.8387 159.153C16.7882 163.709 23.2294 168.082 30.7932 171.837L34.3505 164.671C27.3544 161.198 21.5661 157.234 17.257 153.267L11.8387 159.153ZM51.9273 179.717C58.8463 181.543 66.2753 182.831 74.0797 183.387L74.6484 175.408C67.3574 174.888 60.4212 173.685 53.9685 171.982L51.9273 179.717ZM96.5381 182.903C103.714 182.08 111.072 180.589 118.525 178.308L116.184 170.658C109.209 172.793 102.33 174.187 95.6267 174.955L96.5381 182.903ZM139.302 169.897C142.567 168.238 145.833 166.412 149.094 164.408L144.906 157.592C141.828 159.483 138.749 161.204 135.677 162.765L139.302 169.897ZM149.094 164.408C152.427 162.36 155.572 160.211 158.537 157.971L153.714 151.588C150.957 153.671 148.024 155.676 144.906 157.592L149.094 164.408ZM175.216 142.389C180.374 136.404 184.643 130.064 188.135 123.498L181.073 119.741C177.848 125.802 173.912 131.648 169.157 137.166L175.216 142.389ZM196.671 102.333C198.813 94.9338 200.196 87.4432 200.968 80.0222L193.011 79.1941C192.283 86.1906 190.984 93.2099 188.987 100.108L196.671 102.333ZM201.571 57.4103C201.209 49.6124 200.296 42.0732 199.02 34.9952L191.147 36.4151C192.366 43.1757 193.235 50.3638 193.58 57.7816L201.571 57.4103ZM193.584 13.108C192.344 9.25179 191.03 5.68468 189.694 2.46649L182.305 5.53351C183.552 8.5368 184.791 11.897 185.968 15.5572L193.584 13.108Z" fill="white"/>
</svg>
