<svg width="78" height="65" viewBox="0 0 78 65" fill="none" xmlns="http://www.w3.org/2000/svg">
<path d="M50.3106 44.5529C39.9542 35.6355 27.992 24.4875 18.8685 15.9806C28.2652 22.5778 41.3596 32.1083 52.2604 40.6216C58.292 45.3322 63.6472 49.7276 67.3323 53.1407C69.1763 54.8486 70.5936 56.3029 71.4684 57.4233C71.9071 57.9853 72.1984 58.4496 72.3426 58.8107C72.4918 59.1845 72.4541 59.3677 72.3827 59.4556C72.2463 59.6235 72.012 59.7231 71.6194 59.7044C71.2245 59.6856 70.7082 59.5471 70.0735 59.2838C68.8068 58.7584 67.1371 57.7657 65.1498 56.3951C61.1793 53.6565 55.9897 49.443 50.3106 44.5529Z" fill="#0071BC" stroke="#0071BC" stroke-width="0.493724"/>
<path d="M49.2557 43.6962C38.8994 34.7788 26.9372 23.6308 17.8137 15.1239C27.2104 21.7211 40.3048 31.2516 51.2056 39.765C57.2372 44.4755 62.5924 48.8709 66.2775 52.284C68.1215 53.9919 69.5388 55.4462 70.4136 56.5666C70.8523 57.1286 71.1436 57.5929 71.2878 57.954C71.437 58.3278 71.3993 58.511 71.3279 58.599C71.1915 58.7669 70.9572 58.8664 70.5646 58.8477C70.1696 58.8289 69.6534 58.6904 69.0187 58.4271C67.752 57.9017 66.0823 56.909 64.095 55.5384C60.1245 52.7998 54.9349 48.5863 49.2557 43.6962Z" fill="#FF6871" stroke="#0071BC" stroke-width="0.493724"/>
<path d="M5.65289 5.1927C5.40308 4.95564 5.15498 4.7202 4.90865 4.48645C17.1208 12.8651 34.6604 25.4211 49.1334 36.667C56.8904 42.6943 63.761 48.3411 68.458 52.7648C70.808 54.9782 72.6046 56.8768 73.6961 58.3585C74.2431 59.101 74.6021 59.7244 74.7701 60.2203C74.9399 60.7214 74.8963 61.031 74.7434 61.2192C74.5072 61.51 74.1387 61.6701 73.6005 61.6762C73.0569 61.6824 72.3642 61.5297 71.5277 61.2164C69.8565 60.5905 67.6811 59.3507 65.1103 57.6154C59.973 54.1478 53.3108 48.7389 46.0439 42.4347C32.6853 30.8457 17.3084 16.2534 5.65289 5.1927Z" stroke="#2D2D2D" stroke-width="0.493724"/>
</svg>
